<svg width="236" height="53" viewBox="0 0 236 53" fill="none" xmlns="http://www.w3.org/2000/svg">
<path fill-rule="evenodd" clip-rule="evenodd" d="M33.724 0.375102C27.2968 1.77535 25.7117 4.43463 25.7117 13.8176C25.7117 25.2191 28.541 27.8538 40.7498 27.8201C48.2127 27.7997 51.2036 26.7831 53.6858 23.4247C54.9617 21.6978 55.1528 20.4444 55.1528 13.8148C55.1528 5.39576 54.3125 3.25148 50.2291 1.25193C47.9548 0.138331 37.388 -0.423032 33.724 0.375102ZM155.356 0.426391C148.931 2.062 147.505 4.55196 147.479 14.1738C147.448 25.4686 150.065 27.87 162.403 27.8679C174.657 27.8665 177.402 25.295 177.402 13.8176C177.402 2.81798 175.075 0.415149 164.057 0.0385649C160.577 -0.0808743 156.661 0.094069 155.356 0.426391ZM0 13.0061C0 24.3332 0.125762 25.6576 1.3054 26.7255C2.43164 27.7442 4.10098 27.8798 13.425 27.7126L24.2391 27.518L24.4548 24.532L24.6712 21.546L18.1316 21.5362C7.6434 21.5207 8.431 22.4109 8.431 10.5738V0.468545H4.2155H0V13.0061ZM63.066 1.56809C62.0079 2.1421 60.6512 3.56132 60.0512 4.72198C58.5076 7.70656 57.994 14.8617 58.9819 19.6203C59.6732 22.9505 60.2641 23.9974 62.3486 25.5887C64.7494 27.4196 65.3318 27.5306 73.8225 27.7625C82.146 27.9901 82.8697 27.9044 84.2411 26.533C85.5079 25.2662 85.7151 24.2159 85.7151 19.0519V13.0448L81.6753 13.2556L77.6354 13.4663L77.4268 16.628C77.1759 20.4254 75.9619 21.5313 72.489 21.1252C68.7976 20.6931 67.4431 18.7477 67.4705 13.9153C67.5056 7.71147 68.1871 7.20983 77.1366 6.79179L84.6613 6.4405L84.877 3.45452L85.0934 0.468545L75.0408 0.496649C67.5246 0.517727 64.5035 0.788221 63.066 1.56809ZM89.2281 14.1689V27.8693H93.4436H97.6591V14.1689V0.468545H93.4436H89.2281V14.1689ZM123.788 1.89198C120.627 3.81916 119.41 7.10866 119.366 13.845C119.324 20.2041 120.605 23.6707 123.88 26.0672C125.626 27.3452 126.882 27.518 134.419 27.518H142.976V24.7077V21.8973L139.814 21.7231C129.589 21.161 127.87 20.0875 127.87 14.2638C127.87 11.5139 128.264 9.99346 129.327 8.6431C130.694 6.90491 131.143 6.79179 136.704 6.79179H142.624V3.63017V0.468545L134.369 0.471356C127.328 0.473463 125.772 0.68213 123.788 1.89198ZM182.682 12.9394C182.688 19.7987 182.993 25.8845 183.358 26.4641C183.905 27.3304 186.059 27.518 195.467 27.518H206.911L207.126 24.532L207.343 21.546H200.582C190.715 21.546 191.103 22.0069 191.103 10.2801V0.468545H186.887H182.672L182.682 12.9394ZM210.213 1.31165C209.624 1.90041 209.37 5.7056 209.37 13.9181C209.37 28.4721 208.902 27.8693 220.194 27.8693C228.623 27.8693 232.614 26.6601 234.628 23.4978C236.173 21.0676 236.513 9.21852 235.131 5.91146C233.23 1.36012 230.803 0.474166 220.225 0.471356C214.027 0.469248 210.783 0.741851 210.213 1.31165ZM165.363 2.86716C167.426 2.07535 167.549 4.60957 165.55 6.69624C164.448 7.84637 163.702 9.42437 163.702 10.6047C163.702 12.4834 163.78 12.5319 165.239 11.563C166.084 11.0017 167.14 9.46161 167.585 8.14005C168.489 5.45126 170.728 4.40723 170.728 6.67446C170.728 7.7192 171.077 7.97424 172.133 7.69813C173.637 7.30468 174.073 8.48643 172.729 9.31688C172.164 9.66606 172.292 10.0883 173.151 10.7164C175.116 12.1539 173.759 13.2759 170.686 12.7567C166.11 11.9839 163.431 13.5738 166.523 15.2284C167.473 15.7371 168.732 15.7666 170.355 15.3183C172.164 14.8188 172.966 14.8848 173.545 15.5825C174.128 16.2851 174.007 16.7116 173.05 17.3144C172.15 17.8821 172.037 18.2221 172.66 18.4835C174.196 19.1292 173.707 20.9917 172.133 20.4922C171.026 20.1409 170.728 20.3657 170.728 21.5503C170.728 23.781 168.487 23.0397 167.833 20.5926C167.274 18.501 165.321 15.9254 164.296 15.9254C162.96 15.9254 163.807 19.8226 165.535 21.6261C167.474 23.6503 167.249 25.3878 165.135 24.7168C164.241 24.433 163.738 24.7814 163.399 25.9175L162.922 27.518L162.146 25.9252C161.625 24.858 160.962 24.4625 160.136 24.7245C158.078 25.3779 157.875 23.75 159.739 21.5355C161.628 19.29 162.681 16.7776 162.013 16.1095C160.932 15.0289 158.21 17.3776 157.611 19.9076C156.901 22.9119 154.568 24.1709 154.568 21.5503C154.568 20.3657 154.27 20.1409 153.163 20.4922C152.166 20.8083 151.758 20.6186 151.758 19.8367C151.758 19.231 152.074 18.7357 152.461 18.7357C152.847 18.7357 153.163 18.4195 153.163 18.0331C153.163 17.6467 152.689 17.3305 152.109 17.3305C150.946 17.3305 150.792 16.7249 151.624 15.4153C152.033 14.7717 152.827 14.7345 154.765 15.2699C156.571 15.768 157.788 15.7561 158.773 15.2284C161.865 13.5738 159.186 11.9839 154.61 12.7567C151.565 13.271 150.174 12.1574 152.102 10.748C153.181 9.95904 153.188 9.79463 152.18 8.95856C150.684 7.71709 151.483 6.59507 153.206 7.51686C154.354 8.13162 154.568 8.01288 154.568 6.7651C154.568 4.43322 156.845 5.3782 157.522 7.9911C158.047 10.0181 160.337 12.4125 161.751 12.4125C163.028 12.4125 162.138 9.47004 160.189 7.25058C159.03 5.93043 158.081 4.51472 158.081 4.10582C158.081 2.89878 159.474 2.39362 160.485 3.23321C161.211 3.83532 161.524 3.64984 161.871 2.4154C162.292 0.919604 162.38 0.897121 163.273 2.0613C163.837 2.7962 164.69 3.12501 165.363 2.86716ZM43.8011 6.86908C45.9503 7.84848 47.0731 10.2604 47.0731 13.897C47.0731 19.0118 44.8648 21.4884 40.2742 21.5236C36.2048 21.5545 34.4266 19.2746 34.4266 14.0277C34.4266 11.9291 34.7631 9.58315 35.1748 8.81383C36.4999 6.33792 40.6044 5.41262 43.8011 6.86908ZM226.281 9.07519C227.359 10.7909 227.643 12.1897 227.427 14.7029C227.088 18.6416 225.61 20.5399 222.416 21.1392C218.099 21.9493 217.801 21.4723 217.801 13.7424V6.79179H221.324C224.536 6.79179 224.973 6.99343 226.281 9.07519Z" fill="#3B4586"/>
<path fill-rule="evenodd" clip-rule="evenodd" d="M104.465 9.80145C98.6403 15.8809 107.217 24.3765 113.17 18.4236C115.788 15.805 115.868 12.9202 113.404 9.99255C110.926 7.04732 107.18 6.96723 104.465 9.80145Z" fill="#3B4586"/>
<path d="M16.584 52.336C15.208 52.336 13.88 52.168 12.6 51.832C11.336 51.48 10.304 51.032 9.504 50.488L11.064 46.984C11.816 47.464 12.68 47.864 13.656 48.184C14.648 48.488 15.632 48.64 16.608 48.64C17.264 48.64 17.792 48.584 18.192 48.472C18.592 48.344 18.88 48.184 19.056 47.992C19.248 47.784 19.344 47.544 19.344 47.272C19.344 46.888 19.168 46.584 18.816 46.36C18.464 46.136 18.008 45.952 17.448 45.808C16.888 45.664 16.264 45.52 15.576 45.376C14.904 45.232 14.224 45.048 13.536 44.824C12.864 44.6 12.248 44.312 11.688 43.96C11.128 43.592 10.672 43.12 10.32 42.544C9.968 41.952 9.792 41.208 9.792 40.312C9.792 39.304 10.064 38.392 10.608 37.576C11.168 36.76 12 36.104 13.104 35.608C14.208 35.112 15.584 34.864 17.232 34.864C18.336 34.864 19.416 34.992 20.472 35.248C21.544 35.488 22.496 35.848 23.328 36.328L21.864 39.856C21.064 39.424 20.272 39.104 19.488 38.896C18.704 38.672 17.944 38.56 17.208 38.56C16.552 38.56 16.024 38.632 15.624 38.776C15.224 38.904 14.936 39.08 14.76 39.304C14.584 39.528 14.496 39.784 14.496 40.072C14.496 40.44 14.664 40.736 15 40.96C15.352 41.168 15.808 41.344 16.368 41.488C16.944 41.616 17.568 41.752 18.24 41.896C18.928 42.04 19.608 42.224 20.28 42.448C20.968 42.656 21.592 42.944 22.152 43.312C22.712 43.664 23.16 44.136 23.496 44.728C23.848 45.304 24.024 46.032 24.024 46.912C24.024 47.888 23.744 48.792 23.184 49.624C22.64 50.44 21.816 51.096 20.712 51.592C19.624 52.088 18.248 52.336 16.584 52.336ZM43.3311 52.336C41.9871 52.336 40.7471 52.12 39.6111 51.688C38.4751 51.256 37.4831 50.648 36.6351 49.864C35.8031 49.064 35.1551 48.136 34.6911 47.08C34.2271 46.024 33.9951 44.864 33.9951 43.6C33.9951 42.336 34.2271 41.176 34.6911 40.12C35.1551 39.064 35.8031 38.144 36.6351 37.36C37.4831 36.56 38.4751 35.944 39.6111 35.512C40.7471 35.08 41.9871 34.864 43.3311 34.864C44.6911 34.864 45.9311 35.08 47.0511 35.512C48.1871 35.944 49.1711 36.56 50.0031 37.36C50.8351 38.144 51.4831 39.064 51.9471 40.12C52.4271 41.176 52.6671 42.336 52.6671 43.6C52.6671 44.864 52.4271 46.032 51.9471 47.104C51.4831 48.16 50.8351 49.08 50.0031 49.864C49.1711 50.648 48.1871 51.256 47.0511 51.688C45.9311 52.12 44.6911 52.336 43.3311 52.336ZM43.3311 48.4C43.9711 48.4 44.5631 48.288 45.1071 48.064C45.6671 47.84 46.1471 47.52 46.5471 47.104C46.9631 46.672 47.2831 46.16 47.5071 45.568C47.7471 44.976 47.8671 44.32 47.8671 43.6C47.8671 42.864 47.7471 42.208 47.5071 41.632C47.2831 41.04 46.9631 40.536 46.5471 40.12C46.1471 39.688 45.6671 39.36 45.1071 39.136C44.5631 38.912 43.9711 38.8 43.3311 38.8C42.6911 38.8 42.0911 38.912 41.5311 39.136C40.9871 39.36 40.5071 39.688 40.0911 40.12C39.6911 40.536 39.3711 41.04 39.1311 41.632C38.9071 42.208 38.7951 42.864 38.7951 43.6C38.7951 44.32 38.9071 44.976 39.1311 45.568C39.3711 46.16 39.6911 46.672 40.0911 47.104C40.5071 47.52 40.9871 47.84 41.5311 48.064C42.0911 48.288 42.6911 48.4 43.3311 48.4ZM63.7959 52V35.2H68.5479V48.232H76.5639V52H63.7959ZM94.6723 52.336C92.1923 52.336 90.2563 51.656 88.8643 50.296C87.4723 48.936 86.7763 47.008 86.7763 44.512V35.2H91.5283V44.368C91.5283 45.808 91.8083 46.84 92.3683 47.464C92.9443 48.088 93.7283 48.4 94.7203 48.4C95.7123 48.4 96.4883 48.088 97.0483 47.464C97.6083 46.84 97.8883 45.808 97.8883 44.368V35.2H102.568V44.512C102.568 47.008 101.872 48.936 100.48 50.296C99.0883 51.656 97.1523 52.336 94.6723 52.336ZM117.746 52V38.968H112.586V35.2H127.634V38.968H122.498V52H117.746ZM138.044 52V35.2H142.796V52H138.044ZM163.289 52.336C161.945 52.336 160.705 52.12 159.569 51.688C158.433 51.256 157.441 50.648 156.593 49.864C155.761 49.064 155.113 48.136 154.649 47.08C154.185 46.024 153.953 44.864 153.953 43.6C153.953 42.336 154.185 41.176 154.649 40.12C155.113 39.064 155.761 38.144 156.593 37.36C157.441 36.56 158.433 35.944 159.569 35.512C160.705 35.08 161.945 34.864 163.289 34.864C164.649 34.864 165.889 35.08 167.009 35.512C168.145 35.944 169.129 36.56 169.961 37.36C170.793 38.144 171.441 39.064 171.905 40.12C172.385 41.176 172.625 42.336 172.625 43.6C172.625 44.864 172.385 46.032 171.905 47.104C171.441 48.16 170.793 49.08 169.961 49.864C169.129 50.648 168.145 51.256 167.009 51.688C165.889 52.12 164.649 52.336 163.289 52.336ZM163.289 48.4C163.929 48.4 164.521 48.288 165.065 48.064C165.625 47.84 166.105 47.52 166.505 47.104C166.921 46.672 167.241 46.16 167.465 45.568C167.705 44.976 167.825 44.32 167.825 43.6C167.825 42.864 167.705 42.208 167.465 41.632C167.241 41.04 166.921 40.536 166.505 40.12C166.105 39.688 165.625 39.36 165.065 39.136C164.521 38.912 163.929 38.8 163.289 38.8C162.649 38.8 162.049 38.912 161.489 39.136C160.945 39.36 160.465 39.688 160.049 40.12C159.649 40.536 159.329 41.04 159.089 41.632C158.865 42.208 158.753 42.864 158.753 43.6C158.753 44.32 158.865 44.976 159.089 45.568C159.329 46.16 159.649 46.672 160.049 47.104C160.465 47.52 160.945 47.84 161.489 48.064C162.049 48.288 162.649 48.4 163.289 48.4ZM183.754 52V35.2H187.666L196.93 46.384H195.082V35.2H199.738V52H195.826L186.562 40.816H188.41V52H183.754ZM217.634 52.336C216.258 52.336 214.93 52.168 213.65 51.832C212.386 51.48 211.354 51.032 210.554 50.488L212.114 46.984C212.866 47.464 213.73 47.864 214.706 48.184C215.698 48.488 216.682 48.64 217.658 48.64C218.314 48.64 218.842 48.584 219.242 48.472C219.642 48.344 219.93 48.184 220.106 47.992C220.298 47.784 220.394 47.544 220.394 47.272C220.394 46.888 220.218 46.584 219.866 46.36C219.514 46.136 219.058 45.952 218.498 45.808C217.938 45.664 217.314 45.52 216.626 45.376C215.954 45.232 215.274 45.048 214.586 44.824C213.914 44.6 213.298 44.312 212.738 43.96C212.178 43.592 211.722 43.12 211.37 42.544C211.018 41.952 210.842 41.208 210.842 40.312C210.842 39.304 211.114 38.392 211.658 37.576C212.218 36.76 213.05 36.104 214.154 35.608C215.258 35.112 216.634 34.864 218.282 34.864C219.386 34.864 220.466 34.992 221.522 35.248C222.594 35.488 223.546 35.848 224.378 36.328L222.914 39.856C222.114 39.424 221.322 39.104 220.538 38.896C219.754 38.672 218.994 38.56 218.258 38.56C217.602 38.56 217.074 38.632 216.674 38.776C216.274 38.904 215.986 39.08 215.81 39.304C215.634 39.528 215.546 39.784 215.546 40.072C215.546 40.44 215.714 40.736 216.05 40.96C216.402 41.168 216.858 41.344 217.418 41.488C217.994 41.616 218.618 41.752 219.29 41.896C219.978 42.04 220.658 42.224 221.33 42.448C222.018 42.656 222.642 42.944 223.202 43.312C223.762 43.664 224.21 44.136 224.546 44.728C224.898 45.304 225.074 46.032 225.074 46.912C225.074 47.888 224.794 48.792 224.234 49.624C223.69 50.44 222.866 51.096 221.762 51.592C220.674 52.088 219.298 52.336 217.634 52.336Z" fill="#4DAAF2"/>
</svg>
