<svg width="34" height="39" viewBox="0 0 34 39" fill="none" xmlns="http://www.w3.org/2000/svg">
<path d="M33.4828 19.8706C33.7681 19.5864 33.7681 19.1244 33.4828 18.8402L15.0843 0.511338C14.8005 0.22862 14.3415 0.228621 14.0577 0.511339L10.2309 4.32362C9.94562 4.60786 9.94562 5.06985 10.2309 5.35409L24.2855 19.3554L10.2309 33.3567C9.94562 33.641 9.94562 34.103 10.2309 34.3872L14.0577 38.1995C14.3415 38.4822 14.8005 38.4822 15.0843 38.1995L33.4828 19.8706Z" fill="#22C55E"/>
<path d="M14.0546 19.8707C14.3399 19.5864 14.3399 19.1244 14.0546 18.8402L5.37053 10.1891C5.08674 9.90635 4.62776 9.90635 4.34397 10.1891L0.517193 14.0014C0.231873 14.2856 0.231873 14.7476 0.517194 15.0318L4.85725 19.3554L0.517193 23.6791C0.231873 23.9633 0.231873 24.4253 0.517194 24.7095L4.34397 28.5218C4.62776 28.8045 5.08674 28.8045 5.37054 28.5218L14.0546 19.8707Z" fill="#292C38"/>
</svg>
